<mxfile host="app.diagrams.net" agent="Mozilla/5.0 (Windows NT 10.0; Win64; x64) AppleWebKit/537.36 (KHTML, like Gecko) Chrome/131.0.0.0 Safari/537.36 OPR/116.0.0.0 (Edition std-1)" version="26.0.16">
  <diagram id="prtHgNgQTEPvFCAcTncT" name="Page-1">
    <mxGraphModel dx="878" dy="469" grid="1" gridSize="10" guides="1" tooltips="1" connect="1" arrows="1" fold="1" page="1" pageScale="1" pageWidth="827" pageHeight="1169" math="0" shadow="0">
      <root>
        <mxCell id="0" />
        <mxCell id="1" parent="0" />
        <mxCell id="aRZMaBCFAplvcyR7KEMg-1" value="Pool" style="swimlane;childLayout=stackLayout;resizeParent=1;resizeParentMax=0;startSize=20;html=1;" vertex="1" parent="1">
          <mxGeometry x="230.00000000000045" y="50" width="360" height="480" as="geometry" />
        </mxCell>
        <mxCell id="aRZMaBCFAplvcyR7KEMg-2" value="Admin" style="swimlane;startSize=20;html=1;" vertex="1" parent="aRZMaBCFAplvcyR7KEMg-1">
          <mxGeometry y="20" width="120" height="460" as="geometry" />
        </mxCell>
        <mxCell id="aRZMaBCFAplvcyR7KEMg-9" style="edgeStyle=orthogonalEdgeStyle;rounded=0;orthogonalLoop=1;jettySize=auto;html=1;" edge="1" parent="aRZMaBCFAplvcyR7KEMg-2" source="aRZMaBCFAplvcyR7KEMg-5">
          <mxGeometry relative="1" as="geometry">
            <mxPoint x="60" y="120" as="targetPoint" />
          </mxGeometry>
        </mxCell>
        <mxCell id="aRZMaBCFAplvcyR7KEMg-5" value="Start" style="rounded=1;whiteSpace=wrap;html=1;" vertex="1" parent="aRZMaBCFAplvcyR7KEMg-2">
          <mxGeometry x="10" y="50" width="100" height="40" as="geometry" />
        </mxCell>
        <mxCell id="aRZMaBCFAplvcyR7KEMg-14" style="edgeStyle=orthogonalEdgeStyle;rounded=0;orthogonalLoop=1;jettySize=auto;html=1;exitX=0.5;exitY=1;exitDx=0;exitDy=0;" edge="1" parent="aRZMaBCFAplvcyR7KEMg-2" source="aRZMaBCFAplvcyR7KEMg-10" target="aRZMaBCFAplvcyR7KEMg-11">
          <mxGeometry relative="1" as="geometry" />
        </mxCell>
        <mxCell id="aRZMaBCFAplvcyR7KEMg-10" value="Login" style="rounded=1;whiteSpace=wrap;html=1;" vertex="1" parent="aRZMaBCFAplvcyR7KEMg-2">
          <mxGeometry x="10" y="120" width="100" height="40" as="geometry" />
        </mxCell>
        <mxCell id="aRZMaBCFAplvcyR7KEMg-11" value="Selects &quot;Manage Stock&quot;" style="rounded=1;whiteSpace=wrap;html=1;" vertex="1" parent="aRZMaBCFAplvcyR7KEMg-2">
          <mxGeometry x="10" y="190" width="100" height="40" as="geometry" />
        </mxCell>
        <mxCell id="aRZMaBCFAplvcyR7KEMg-25" value="Admin Updates Stock" style="rounded=1;whiteSpace=wrap;html=1;" vertex="1" parent="aRZMaBCFAplvcyR7KEMg-2">
          <mxGeometry x="10" y="310" width="100" height="40" as="geometry" />
        </mxCell>
        <mxCell id="aRZMaBCFAplvcyR7KEMg-31" value="" style="endArrow=none;html=1;rounded=0;entryX=0.5;entryY=1;entryDx=0;entryDy=0;" edge="1" parent="aRZMaBCFAplvcyR7KEMg-2" target="aRZMaBCFAplvcyR7KEMg-25">
          <mxGeometry width="50" height="50" relative="1" as="geometry">
            <mxPoint x="59.999999999999545" y="370" as="sourcePoint" />
            <mxPoint x="99.99999999999955" y="320" as="targetPoint" />
          </mxGeometry>
        </mxCell>
        <mxCell id="aRZMaBCFAplvcyR7KEMg-3" value="System" style="swimlane;startSize=20;html=1;" vertex="1" parent="aRZMaBCFAplvcyR7KEMg-1">
          <mxGeometry x="120" y="20" width="120" height="460" as="geometry" />
        </mxCell>
        <mxCell id="aRZMaBCFAplvcyR7KEMg-16" value="Verify Data" style="rounded=1;whiteSpace=wrap;html=1;" vertex="1" parent="aRZMaBCFAplvcyR7KEMg-3">
          <mxGeometry x="10" y="270" width="100" height="40" as="geometry" />
        </mxCell>
        <mxCell id="aRZMaBCFAplvcyR7KEMg-30" value="" style="endArrow=classic;html=1;rounded=0;entryX=0;entryY=0.5;entryDx=0;entryDy=0;" edge="1" parent="aRZMaBCFAplvcyR7KEMg-3" target="aRZMaBCFAplvcyR7KEMg-32">
          <mxGeometry width="50" height="50" relative="1" as="geometry">
            <mxPoint x="-60.000000000000455" y="370" as="sourcePoint" />
            <mxPoint x="139.99999999999955" y="370" as="targetPoint" />
          </mxGeometry>
        </mxCell>
        <mxCell id="aRZMaBCFAplvcyR7KEMg-35" value="" style="endArrow=classic;html=1;rounded=0;" edge="1" parent="aRZMaBCFAplvcyR7KEMg-3">
          <mxGeometry width="50" height="50" relative="1" as="geometry">
            <mxPoint x="179.99999999999955" y="420" as="sourcePoint" />
            <mxPoint x="-60.000000000000455" y="420" as="targetPoint" />
          </mxGeometry>
        </mxCell>
        <mxCell id="aRZMaBCFAplvcyR7KEMg-37" value="Stock Update&lt;div&gt;Confirmation&lt;/div&gt;" style="text;html=1;align=center;verticalAlign=middle;resizable=0;points=[];autosize=1;strokeColor=none;fillColor=none;" vertex="1" parent="aRZMaBCFAplvcyR7KEMg-3">
          <mxGeometry x="9.999999999999545" y="380" width="100" height="40" as="geometry" />
        </mxCell>
        <mxCell id="aRZMaBCFAplvcyR7KEMg-4" value="Database" style="swimlane;startSize=20;html=1;" vertex="1" parent="aRZMaBCFAplvcyR7KEMg-1">
          <mxGeometry x="240" y="20" width="120" height="460" as="geometry" />
        </mxCell>
        <mxCell id="aRZMaBCFAplvcyR7KEMg-22" value="&lt;div style=&quot;line-height: 80%;&quot;&gt;&lt;font style=&quot;font-size: 7px; line-height: 80%;&quot;&gt;Info&lt;/font&gt;&lt;div&gt;&lt;font style=&quot;font-size: 7px; line-height: 80%;&quot;&gt;Check&lt;/font&gt;&lt;/div&gt;&lt;/div&gt;" style="rhombus;whiteSpace=wrap;html=1;" vertex="1" parent="aRZMaBCFAplvcyR7KEMg-4">
          <mxGeometry x="39.999999999999545" y="300" width="40" height="40" as="geometry" />
        </mxCell>
        <mxCell id="aRZMaBCFAplvcyR7KEMg-32" value="&lt;div style=&quot;line-height: 80%;&quot;&gt;&lt;span style=&quot;font-size: 7px; line-height: 80%;&quot;&gt;Stock&lt;/span&gt;&lt;div&gt;&lt;span style=&quot;font-size: 7px; line-height: 80%;&quot;&gt;Changes&lt;/span&gt;&lt;/div&gt;&lt;/div&gt;" style="rhombus;whiteSpace=wrap;html=1;" vertex="1" parent="aRZMaBCFAplvcyR7KEMg-4">
          <mxGeometry x="39.999999999999545" y="350" width="40" height="40" as="geometry" />
        </mxCell>
        <mxCell id="aRZMaBCFAplvcyR7KEMg-36" value="" style="endArrow=none;html=1;rounded=0;entryX=0.5;entryY=1;entryDx=0;entryDy=0;" edge="1" parent="aRZMaBCFAplvcyR7KEMg-4" target="aRZMaBCFAplvcyR7KEMg-32">
          <mxGeometry width="50" height="50" relative="1" as="geometry">
            <mxPoint x="59.999999999999545" y="420" as="sourcePoint" />
            <mxPoint x="109.99999999999955" y="370" as="targetPoint" />
          </mxGeometry>
        </mxCell>
        <mxCell id="aRZMaBCFAplvcyR7KEMg-18" style="edgeStyle=orthogonalEdgeStyle;rounded=0;orthogonalLoop=1;jettySize=auto;html=1;entryX=0;entryY=0.5;entryDx=0;entryDy=0;" edge="1" parent="aRZMaBCFAplvcyR7KEMg-1" source="aRZMaBCFAplvcyR7KEMg-11" target="aRZMaBCFAplvcyR7KEMg-16">
          <mxGeometry relative="1" as="geometry">
            <Array as="points">
              <mxPoint x="60" y="310" />
            </Array>
          </mxGeometry>
        </mxCell>
        <mxCell id="aRZMaBCFAplvcyR7KEMg-23" style="edgeStyle=orthogonalEdgeStyle;rounded=0;orthogonalLoop=1;jettySize=auto;html=1;entryX=0;entryY=0;entryDx=0;entryDy=0;" edge="1" parent="aRZMaBCFAplvcyR7KEMg-1" source="aRZMaBCFAplvcyR7KEMg-16" target="aRZMaBCFAplvcyR7KEMg-22">
          <mxGeometry relative="1" as="geometry" />
        </mxCell>
        <mxCell id="aRZMaBCFAplvcyR7KEMg-26" style="edgeStyle=orthogonalEdgeStyle;rounded=0;orthogonalLoop=1;jettySize=auto;html=1;exitX=0;exitY=1;exitDx=0;exitDy=0;entryX=1;entryY=0.5;entryDx=0;entryDy=0;" edge="1" parent="aRZMaBCFAplvcyR7KEMg-1" source="aRZMaBCFAplvcyR7KEMg-22" target="aRZMaBCFAplvcyR7KEMg-25">
          <mxGeometry relative="1" as="geometry" />
        </mxCell>
      </root>
    </mxGraphModel>
  </diagram>
</mxfile>
